<mxfile host="app.diagrams.net" modified="2024-04-01T02:41:06.061Z" agent="Mozilla/5.0 (Windows NT 10.0; Win64; x64) AppleWebKit/537.36 (KHTML, like Gecko) Chrome/123.0.0.0 Safari/537.36" etag="eYFRslU41rn3hHwislKx" version="24.2.1" type="device">
  <diagram name="페이지-1" id="dLwvVa3FMsNBw7mWSEs0">
    <mxGraphModel dx="1055" dy="923" grid="1" gridSize="10" guides="1" tooltips="1" connect="1" arrows="1" fold="1" page="1" pageScale="1" pageWidth="827" pageHeight="1169" background="none" math="0" shadow="0">
      <root>
        <mxCell id="0" />
        <mxCell id="1" parent="0" />
        <mxCell id="kC7qSwGPLO-35ETYUKWl-1" value="리스트 페이지&amp;nbsp;&lt;div&gt;시작&lt;/div&gt;" style="strokeWidth=2;html=1;shape=mxgraph.flowchart.terminator;whiteSpace=wrap;" vertex="1" parent="1">
          <mxGeometry x="170" y="20" width="100" height="60" as="geometry" />
        </mxCell>
        <mxCell id="kC7qSwGPLO-35ETYUKWl-2" value="DB 접속" style="rounded=0;whiteSpace=wrap;html=1;" vertex="1" parent="1">
          <mxGeometry x="160" y="140" width="120" height="60" as="geometry" />
        </mxCell>
        <mxCell id="kC7qSwGPLO-35ETYUKWl-3" value="" style="endArrow=classic;html=1;rounded=0;exitX=0.5;exitY=1;exitDx=0;exitDy=0;exitPerimeter=0;entryX=0.5;entryY=0;entryDx=0;entryDy=0;" edge="1" parent="1" source="kC7qSwGPLO-35ETYUKWl-1" target="kC7qSwGPLO-35ETYUKWl-2">
          <mxGeometry width="50" height="50" relative="1" as="geometry">
            <mxPoint x="219.04000000000002" y="80.00000000000001" as="sourcePoint" />
            <mxPoint x="218" y="141" as="targetPoint" />
          </mxGeometry>
        </mxCell>
        <mxCell id="kC7qSwGPLO-35ETYUKWl-4" value="DB 접속&lt;div&gt;예외 발생&lt;/div&gt;" style="rhombus;whiteSpace=wrap;html=1;" vertex="1" parent="1">
          <mxGeometry x="180" y="250" width="80" height="80" as="geometry" />
        </mxCell>
        <mxCell id="kC7qSwGPLO-35ETYUKWl-6" value="" style="endArrow=classic;html=1;rounded=0;" edge="1" parent="1">
          <mxGeometry width="50" height="50" relative="1" as="geometry">
            <mxPoint x="219" y="200" as="sourcePoint" />
            <mxPoint x="219" y="250" as="targetPoint" />
          </mxGeometry>
        </mxCell>
        <mxCell id="kC7qSwGPLO-35ETYUKWl-8" value="예외 메세지 출력" style="shape=document;whiteSpace=wrap;html=1;boundedLbl=1;" vertex="1" parent="1">
          <mxGeometry x="580" y="1270" width="120" height="80" as="geometry" />
        </mxCell>
        <mxCell id="kC7qSwGPLO-35ETYUKWl-10" value="리스트 페이지&lt;div&gt;종료&lt;/div&gt;" style="strokeWidth=2;html=1;shape=mxgraph.flowchart.terminator;whiteSpace=wrap;" vertex="1" parent="1">
          <mxGeometry x="160" y="1400" width="100" height="60" as="geometry" />
        </mxCell>
        <mxCell id="kC7qSwGPLO-35ETYUKWl-13" value="page 정보&lt;div&gt;획득&lt;/div&gt;" style="shape=parallelogram;perimeter=parallelogramPerimeter;whiteSpace=wrap;html=1;fixedSize=1;" vertex="1" parent="1">
          <mxGeometry x="40" y="480" width="120" height="60" as="geometry" />
        </mxCell>
        <mxCell id="kC7qSwGPLO-35ETYUKWl-16" value="page&amp;nbsp;&lt;div&gt;파라미터 존재&lt;/div&gt;" style="rhombus;whiteSpace=wrap;html=1;" vertex="1" parent="1">
          <mxGeometry x="160" y="360" width="120" height="90" as="geometry" />
        </mxCell>
        <mxCell id="kC7qSwGPLO-35ETYUKWl-18" value="" style="endArrow=classic;html=1;rounded=0;entryX=0.5;entryY=0;entryDx=0;entryDy=0;exitX=0.5;exitY=1;exitDx=0;exitDy=0;" edge="1" parent="1" source="kC7qSwGPLO-35ETYUKWl-4" target="kC7qSwGPLO-35ETYUKWl-16">
          <mxGeometry width="50" height="50" relative="1" as="geometry">
            <mxPoint x="410" y="530" as="sourcePoint" />
            <mxPoint x="460" y="480" as="targetPoint" />
          </mxGeometry>
        </mxCell>
        <mxCell id="kC7qSwGPLO-35ETYUKWl-20" value="1 획득" style="shape=parallelogram;perimeter=parallelogramPerimeter;whiteSpace=wrap;html=1;fixedSize=1;" vertex="1" parent="1">
          <mxGeometry x="294" y="480" width="120" height="60" as="geometry" />
        </mxCell>
        <mxCell id="kC7qSwGPLO-35ETYUKWl-23" value="" style="endArrow=classic;html=1;rounded=0;exitX=0;exitY=0.5;exitDx=0;exitDy=0;entryX=0.5;entryY=0;entryDx=0;entryDy=0;" edge="1" parent="1" source="kC7qSwGPLO-35ETYUKWl-16" target="kC7qSwGPLO-35ETYUKWl-13">
          <mxGeometry relative="1" as="geometry">
            <mxPoint x="380" y="500" as="sourcePoint" />
            <mxPoint x="480" y="500" as="targetPoint" />
            <Array as="points">
              <mxPoint x="100" y="405" />
            </Array>
          </mxGeometry>
        </mxCell>
        <mxCell id="kC7qSwGPLO-35ETYUKWl-24" value="YES" style="edgeLabel;resizable=0;html=1;;align=center;verticalAlign=middle;" connectable="0" vertex="1" parent="kC7qSwGPLO-35ETYUKWl-23">
          <mxGeometry relative="1" as="geometry" />
        </mxCell>
        <mxCell id="kC7qSwGPLO-35ETYUKWl-25" value="" style="endArrow=classic;html=1;rounded=0;exitX=1;exitY=0.5;exitDx=0;exitDy=0;entryX=0.5;entryY=0;entryDx=0;entryDy=0;" edge="1" parent="1" source="kC7qSwGPLO-35ETYUKWl-16" target="kC7qSwGPLO-35ETYUKWl-20">
          <mxGeometry relative="1" as="geometry">
            <mxPoint x="380" y="500" as="sourcePoint" />
            <mxPoint x="480" y="500" as="targetPoint" />
            <Array as="points">
              <mxPoint x="354" y="405" />
            </Array>
          </mxGeometry>
        </mxCell>
        <mxCell id="kC7qSwGPLO-35ETYUKWl-26" value="NO" style="edgeLabel;resizable=0;html=1;;align=center;verticalAlign=middle;" connectable="0" vertex="1" parent="kC7qSwGPLO-35ETYUKWl-25">
          <mxGeometry relative="1" as="geometry" />
        </mxCell>
        <mxCell id="kC7qSwGPLO-35ETYUKWl-27" value="" style="endArrow=classic;html=1;rounded=0;exitX=1;exitY=0.5;exitDx=0;exitDy=0;entryX=0.5;entryY=0;entryDx=0;entryDy=0;" edge="1" parent="1" source="kC7qSwGPLO-35ETYUKWl-4" target="kC7qSwGPLO-35ETYUKWl-8">
          <mxGeometry relative="1" as="geometry">
            <mxPoint x="480" y="280" as="sourcePoint" />
            <mxPoint x="420" y="355" as="targetPoint" />
            <Array as="points">
              <mxPoint x="640" y="290" />
            </Array>
          </mxGeometry>
        </mxCell>
        <mxCell id="kC7qSwGPLO-35ETYUKWl-28" value="YES" style="edgeLabel;resizable=0;html=1;;align=center;verticalAlign=middle;" connectable="0" vertex="1" parent="kC7qSwGPLO-35ETYUKWl-27">
          <mxGeometry relative="1" as="geometry">
            <mxPoint x="-300" y="-300" as="offset" />
          </mxGeometry>
        </mxCell>
        <mxCell id="kC7qSwGPLO-35ETYUKWl-31" value="DB에서 게시글 수&lt;span style=&quot;background-color: initial;&quot;&gt;&amp;nbsp;획득&lt;/span&gt;" style="rounded=0;whiteSpace=wrap;html=1;" vertex="1" parent="1">
          <mxGeometry x="150" y="600" width="120" height="60" as="geometry" />
        </mxCell>
        <mxCell id="kC7qSwGPLO-35ETYUKWl-32" value="" style="endArrow=classic;html=1;rounded=0;exitX=0.5;exitY=1;exitDx=0;exitDy=0;entryX=0.5;entryY=0;entryDx=0;entryDy=0;" edge="1" parent="1" source="kC7qSwGPLO-35ETYUKWl-13" target="kC7qSwGPLO-35ETYUKWl-31">
          <mxGeometry width="50" height="50" relative="1" as="geometry">
            <mxPoint x="410" y="530" as="sourcePoint" />
            <mxPoint x="460" y="480" as="targetPoint" />
            <Array as="points">
              <mxPoint x="100" y="570" />
              <mxPoint x="210" y="570" />
            </Array>
          </mxGeometry>
        </mxCell>
        <mxCell id="kC7qSwGPLO-35ETYUKWl-33" value="" style="endArrow=classic;html=1;rounded=0;exitX=0.5;exitY=1;exitDx=0;exitDy=0;entryX=0.5;entryY=0;entryDx=0;entryDy=0;" edge="1" parent="1" source="kC7qSwGPLO-35ETYUKWl-20" target="kC7qSwGPLO-35ETYUKWl-31">
          <mxGeometry width="50" height="50" relative="1" as="geometry">
            <mxPoint x="410" y="530" as="sourcePoint" />
            <mxPoint x="460" y="480" as="targetPoint" />
            <Array as="points">
              <mxPoint x="354" y="570" />
              <mxPoint x="210" y="570" />
            </Array>
          </mxGeometry>
        </mxCell>
        <mxCell id="kC7qSwGPLO-35ETYUKWl-34" value="페이지 관련 설정&lt;div&gt;셋팅&lt;/div&gt;" style="rounded=0;whiteSpace=wrap;html=1;" vertex="1" parent="1">
          <mxGeometry x="150" y="870" width="120" height="60" as="geometry" />
        </mxCell>
        <mxCell id="kC7qSwGPLO-35ETYUKWl-35" value="" style="endArrow=classic;html=1;rounded=0;entryX=0.494;entryY=0;entryDx=0;entryDy=0;entryPerimeter=0;" edge="1" parent="1" source="kC7qSwGPLO-35ETYUKWl-31" target="kC7qSwGPLO-35ETYUKWl-43">
          <mxGeometry width="50" height="50" relative="1" as="geometry">
            <mxPoint x="210" y="660" as="sourcePoint" />
            <mxPoint x="209.41" y="720" as="targetPoint" />
          </mxGeometry>
        </mxCell>
        <mxCell id="kC7qSwGPLO-35ETYUKWl-36" value="DB에서 게시글 조회" style="rounded=0;whiteSpace=wrap;html=1;" vertex="1" parent="1">
          <mxGeometry x="150" y="970" width="120" height="60" as="geometry" />
        </mxCell>
        <mxCell id="kC7qSwGPLO-35ETYUKWl-37" value="화면에 출력" style="shape=document;whiteSpace=wrap;html=1;boundedLbl=1;" vertex="1" parent="1">
          <mxGeometry x="150" y="1260" width="120" height="80" as="geometry" />
        </mxCell>
        <mxCell id="kC7qSwGPLO-35ETYUKWl-38" value="" style="endArrow=classic;html=1;rounded=0;exitX=0.5;exitY=1;exitDx=0;exitDy=0;entryX=0.5;entryY=0;entryDx=0;entryDy=0;" edge="1" parent="1" source="kC7qSwGPLO-35ETYUKWl-36" target="kC7qSwGPLO-35ETYUKWl-48">
          <mxGeometry width="50" height="50" relative="1" as="geometry">
            <mxPoint x="360" y="1010" as="sourcePoint" />
            <mxPoint x="210" y="1090" as="targetPoint" />
          </mxGeometry>
        </mxCell>
        <mxCell id="kC7qSwGPLO-35ETYUKWl-39" value="" style="endArrow=classic;html=1;rounded=0;exitX=0.5;exitY=1;exitDx=0;exitDy=0;entryX=0.5;entryY=0;entryDx=0;entryDy=0;" edge="1" parent="1" source="kC7qSwGPLO-35ETYUKWl-34" target="kC7qSwGPLO-35ETYUKWl-36">
          <mxGeometry width="50" height="50" relative="1" as="geometry">
            <mxPoint x="360" y="1010" as="sourcePoint" />
            <mxPoint x="410" y="960" as="targetPoint" />
          </mxGeometry>
        </mxCell>
        <mxCell id="kC7qSwGPLO-35ETYUKWl-40" value="" style="endArrow=classic;html=1;rounded=0;exitX=0.51;exitY=0.811;exitDx=0;exitDy=0;exitPerimeter=0;entryX=1;entryY=0.5;entryDx=0;entryDy=0;entryPerimeter=0;" edge="1" parent="1" source="kC7qSwGPLO-35ETYUKWl-8" target="kC7qSwGPLO-35ETYUKWl-10">
          <mxGeometry width="50" height="50" relative="1" as="geometry">
            <mxPoint x="420" y="960" as="sourcePoint" />
            <mxPoint x="470" y="910" as="targetPoint" />
            <Array as="points">
              <mxPoint x="644" y="1430" />
            </Array>
          </mxGeometry>
        </mxCell>
        <mxCell id="kC7qSwGPLO-35ETYUKWl-41" value="" style="endArrow=classic;html=1;rounded=0;entryX=0.5;entryY=0;entryDx=0;entryDy=0;entryPerimeter=0;exitX=0.496;exitY=0.824;exitDx=0;exitDy=0;exitPerimeter=0;" edge="1" parent="1" source="kC7qSwGPLO-35ETYUKWl-37" target="kC7qSwGPLO-35ETYUKWl-10">
          <mxGeometry width="50" height="50" relative="1" as="geometry">
            <mxPoint x="170" y="1360" as="sourcePoint" />
            <mxPoint x="350" y="1130" as="targetPoint" />
          </mxGeometry>
        </mxCell>
        <mxCell id="kC7qSwGPLO-35ETYUKWl-43" value="게시글 획득&lt;div&gt;예외 발생&lt;/div&gt;" style="rhombus;whiteSpace=wrap;html=1;" vertex="1" parent="1">
          <mxGeometry x="160" y="710" width="100" height="90" as="geometry" />
        </mxCell>
        <mxCell id="kC7qSwGPLO-35ETYUKWl-44" value="" style="endArrow=classic;html=1;rounded=0;exitX=1;exitY=0.5;exitDx=0;exitDy=0;entryX=0.5;entryY=0;entryDx=0;entryDy=0;" edge="1" parent="1" source="kC7qSwGPLO-35ETYUKWl-43" target="kC7qSwGPLO-35ETYUKWl-8">
          <mxGeometry relative="1" as="geometry">
            <mxPoint x="414" y="690" as="sourcePoint" />
            <mxPoint x="650" y="760" as="targetPoint" />
            <Array as="points">
              <mxPoint x="640" y="755" />
            </Array>
          </mxGeometry>
        </mxCell>
        <mxCell id="kC7qSwGPLO-35ETYUKWl-45" value="YES" style="edgeLabel;resizable=0;html=1;;align=center;verticalAlign=middle;" connectable="0" vertex="1" parent="kC7qSwGPLO-35ETYUKWl-44">
          <mxGeometry relative="1" as="geometry">
            <mxPoint x="-286" y="-67" as="offset" />
          </mxGeometry>
        </mxCell>
        <mxCell id="kC7qSwGPLO-35ETYUKWl-46" value="" style="endArrow=classic;html=1;rounded=0;exitX=0.5;exitY=1;exitDx=0;exitDy=0;entryX=0.5;entryY=0;entryDx=0;entryDy=0;" edge="1" parent="1" source="kC7qSwGPLO-35ETYUKWl-43" target="kC7qSwGPLO-35ETYUKWl-34">
          <mxGeometry relative="1" as="geometry">
            <mxPoint x="339" y="840" as="sourcePoint" />
            <mxPoint x="413" y="915" as="targetPoint" />
            <Array as="points" />
          </mxGeometry>
        </mxCell>
        <mxCell id="kC7qSwGPLO-35ETYUKWl-47" value="NO" style="edgeLabel;resizable=0;html=1;;align=center;verticalAlign=middle;" connectable="0" vertex="1" parent="kC7qSwGPLO-35ETYUKWl-46">
          <mxGeometry relative="1" as="geometry" />
        </mxCell>
        <mxCell id="kC7qSwGPLO-35ETYUKWl-48" value="게시글 수 획득&lt;div&gt;예외발생&lt;/div&gt;" style="rhombus;whiteSpace=wrap;html=1;" vertex="1" parent="1">
          <mxGeometry x="155" y="1080" width="110" height="100" as="geometry" />
        </mxCell>
        <mxCell id="kC7qSwGPLO-35ETYUKWl-49" value="" style="endArrow=classic;html=1;rounded=0;exitX=1;exitY=0.5;exitDx=0;exitDy=0;" edge="1" parent="1" source="kC7qSwGPLO-35ETYUKWl-48" target="kC7qSwGPLO-35ETYUKWl-8">
          <mxGeometry relative="1" as="geometry">
            <mxPoint x="270" y="765" as="sourcePoint" />
            <mxPoint x="650" y="850" as="targetPoint" />
            <Array as="points">
              <mxPoint x="640" y="1130" />
            </Array>
          </mxGeometry>
        </mxCell>
        <mxCell id="kC7qSwGPLO-35ETYUKWl-50" value="YES" style="edgeLabel;resizable=0;html=1;;align=center;verticalAlign=middle;" connectable="0" vertex="1" parent="kC7qSwGPLO-35ETYUKWl-49">
          <mxGeometry relative="1" as="geometry">
            <mxPoint x="-169" as="offset" />
          </mxGeometry>
        </mxCell>
        <mxCell id="kC7qSwGPLO-35ETYUKWl-52" value="" style="endArrow=classic;html=1;rounded=0;entryX=0.5;entryY=0;entryDx=0;entryDy=0;" edge="1" parent="1" source="kC7qSwGPLO-35ETYUKWl-48" target="kC7qSwGPLO-35ETYUKWl-37">
          <mxGeometry relative="1" as="geometry">
            <mxPoint x="209.41" y="1180" as="sourcePoint" />
            <mxPoint x="209.41" y="1250" as="targetPoint" />
            <Array as="points" />
          </mxGeometry>
        </mxCell>
        <mxCell id="kC7qSwGPLO-35ETYUKWl-53" value="NO" style="edgeLabel;resizable=0;html=1;;align=center;verticalAlign=middle;" connectable="0" vertex="1" parent="kC7qSwGPLO-35ETYUKWl-52">
          <mxGeometry relative="1" as="geometry" />
        </mxCell>
      </root>
    </mxGraphModel>
  </diagram>
</mxfile>
